<svg width="512" height="512" viewBox="0 0 512 512" fill="none" xmlns="http://www.w3.org/2000/svg">
<g clip-path="url(#clip0)">
<path d="M250.667 501.333C201.09 501.333 152.626 486.632 111.404 459.088C70.1819 431.545 38.0533 392.396 19.081 346.593C0.108611 300.789 -4.85543 250.389 4.8166 201.764C14.4886 153.14 38.3623 108.475 73.4187 73.4187C108.475 38.3623 153.14 14.4886 201.764 4.8166C250.389 -4.85543 300.789 0.108603 346.593 19.081C392.396 38.0533 431.545 70.1819 459.089 111.404C486.632 152.626 501.333 201.09 501.333 250.667C501.277 317.13 474.849 380.856 427.853 427.853C380.856 474.849 317.13 501.277 250.667 501.333ZM250.667 32.0001C207.419 32.0001 165.142 44.8247 129.182 68.8521C93.2225 92.8795 65.1955 127.031 48.6451 166.987C32.0948 206.943 27.7644 250.909 36.2017 293.327C44.639 335.744 65.465 374.706 96.0461 405.287C126.627 435.869 165.59 456.695 208.007 465.132C250.424 473.569 294.391 469.239 334.347 452.688C374.303 436.138 408.454 408.111 432.482 372.151C456.509 336.192 469.333 293.915 469.333 250.667C469.277 192.69 446.221 137.104 405.225 96.1085C364.229 55.1128 308.643 32.0566 250.667 32.0001Z" fill="black"/>
<path d="M250.665 439.467C241.006 439.468 231.491 437.119 222.943 432.622C214.394 428.125 207.069 421.615 201.599 413.653C185.662 412.811 170.344 407.209 157.624 397.571C144.905 387.933 135.367 374.702 130.245 359.587C125.123 344.473 124.651 328.17 128.89 312.784C133.129 297.399 141.884 283.638 154.025 273.28V173.867C154.025 146.133 154.025 61.8667 202.025 61.8667C218.665 61.8667 229.119 68.6933 241.919 203.093C249.354 202.136 256.883 202.136 264.319 203.093C277.332 61.8667 289.065 61.8667 304.425 61.8667C352.212 61.8667 352.212 147.2 352.212 173.867V277.333C359.569 284.622 365.411 293.294 369.402 302.85C373.392 312.406 375.453 322.657 375.465 333.013C375.44 353.475 367.575 373.149 353.488 387.989C339.402 402.83 320.164 411.709 299.732 412.8C294.358 420.919 287.075 427.596 278.52 432.245C269.966 436.894 260.401 439.374 250.665 439.467ZM210.772 381.227C213.858 381.257 216.87 382.18 219.444 383.883C222.018 385.586 224.044 387.998 225.279 390.827C227.446 395.754 231 399.945 235.508 402.887C240.016 405.829 245.282 407.395 250.665 407.395C256.048 407.395 261.315 405.829 265.823 402.887C270.331 399.945 273.885 395.754 276.052 390.827C277.349 387.791 279.577 385.246 282.414 383.558C285.252 381.871 288.552 381.129 291.839 381.44H295.039C305.172 381.926 315.196 379.16 323.646 373.546C332.096 367.932 338.53 359.763 342.008 350.233C345.487 340.703 345.828 330.31 342.981 320.573C340.134 310.835 334.249 302.263 326.185 296.107C324.326 294.671 322.821 292.829 321.785 290.721C320.75 288.613 320.212 286.295 320.212 283.947V173.867C321.993 149.41 318.651 124.851 310.399 101.76C302.459 143.063 297.045 184.812 294.185 226.773C293.97 229.321 293.139 231.778 291.764 233.933C290.389 236.088 288.511 237.878 286.292 239.147C283.99 240.361 281.427 240.996 278.825 240.996C276.223 240.996 273.66 240.361 271.359 239.147C265.646 236.466 259.449 234.971 253.143 234.751C246.836 234.531 240.551 235.591 234.665 237.867C232.335 238.718 229.846 239.045 227.375 238.824C224.905 238.603 222.513 237.839 220.372 236.587C218.282 235.264 216.523 233.48 215.229 231.372C213.935 229.265 213.14 226.889 212.905 224.427C210.146 183.243 204.802 142.273 196.905 101.76C188.653 124.851 185.31 149.41 187.092 173.867V280.533C187.125 283.152 186.498 285.737 185.267 288.049C184.037 290.361 182.243 292.325 180.052 293.76C171.528 299.48 165.072 307.793 161.641 317.468C158.21 327.143 157.985 337.666 161.001 347.478C164.016 357.291 170.112 365.872 178.384 371.95C186.657 378.028 196.667 381.281 206.932 381.227H210.559H210.772Z" fill="black"/>
</g>
<defs>
<clipPath id="clip0">
<rect width="512" height="512" fill="white"/>
</clipPath>
</defs>
</svg>
