<svg width="512" height="512" viewBox="0 0 512 512" fill="none" xmlns="http://www.w3.org/2000/svg">
<path d="M153.604 501.547C150.259 501.544 146.998 500.493 144.281 498.541C141.565 496.59 139.528 493.836 138.457 490.667C132.753 469.366 122.468 449.567 108.318 432.654C94.1685 415.741 76.4967 402.121 56.5372 392.747C53.7498 391.611 51.345 389.703 49.6063 387.246C47.8677 384.789 46.8676 381.886 46.7239 378.88C46.6024 375.841 47.3382 372.829 48.8472 370.188C50.3561 367.548 52.5774 365.385 55.2572 363.946C74.2698 353.247 90.6621 338.449 103.245 320.626C115.828 302.804 124.285 282.404 128.004 260.906C128.795 257.494 130.685 254.435 133.382 252.199C136.08 249.964 139.437 248.676 142.937 248.533C146.42 248.247 149.894 249.175 152.771 251.157C155.648 253.14 157.751 256.057 158.724 259.413C164.534 280.617 174.89 300.303 189.073 317.102C203.257 333.901 220.927 347.411 240.857 356.693C243.625 357.878 246.003 359.821 247.716 362.297C249.43 364.773 250.41 367.683 250.543 370.691C250.677 373.699 249.959 376.684 248.472 379.303C246.985 381.921 244.789 384.067 242.137 385.493C223.075 396.341 206.636 411.255 193.99 429.174C181.343 447.093 172.799 467.578 168.964 489.173C168.152 492.536 166.285 495.551 163.636 497.778C160.988 500.004 157.697 501.325 154.244 501.547H153.604ZM94.0839 376.747C118.316 392.948 138.116 414.947 151.684 440.747C162.846 414.053 180.611 390.635 203.311 372.693C179.034 356.606 159.279 334.573 145.924 308.693C134.589 335.346 116.769 358.74 94.0839 376.747Z" fill="black"/>
<path d="M375.037 501.12C321.871 498.711 270.316 482.139 225.703 453.12C222.971 450.558 221.225 447.118 220.768 443.401C220.311 439.683 221.173 435.923 223.204 432.776C225.234 429.628 228.305 427.293 231.88 426.177C235.456 425.06 239.309 425.234 242.77 426.667C320.85 473.6 396.37 483.414 434.77 451.84C473.17 420.267 472.743 346.454 430.717 265.387C429.63 263.515 428.935 261.441 428.674 259.293C428.412 257.144 428.589 254.964 429.194 252.886C429.799 250.807 430.819 248.873 432.193 247.201C433.567 245.528 435.266 244.152 437.188 243.155C439.109 242.158 441.213 241.562 443.372 241.401C445.531 241.241 447.699 241.521 449.747 242.223C451.794 242.925 453.678 244.036 455.284 245.487C456.89 246.938 458.185 248.701 459.09 250.667C509.01 347.094 507.517 433.707 454.823 476.587C431.889 493.792 403.676 502.467 375.037 501.12Z" fill="black"/>
<path d="M405.334 208C402.848 208.016 400.392 207.445 398.168 206.333C395.943 205.221 394.013 203.599 392.534 201.6C381.744 187.823 370.206 174.648 357.974 162.133C256.001 52.9063 120.534 1.9196 60.801 50.7729C30.2944 75.7329 23.681 124.373 42.6677 184.533C43.8804 188.579 43.4666 192.938 41.5144 196.683C39.5621 200.428 36.2254 203.264 32.2144 204.586C28.1689 205.857 23.7846 205.469 20.0245 203.509C16.2645 201.549 13.4362 198.177 12.161 194.133C-11.0923 120.96 0.0010376 59.5196 40.5344 26.0263C115.414 -35.2004 265.174 15.1463 381.868 140.16C394.463 153.765 406.354 168.006 417.494 182.826C419.718 186.141 420.622 190.166 420.03 194.113C419.438 198.06 417.392 201.643 414.294 204.16C411.804 206.379 408.659 207.726 405.334 208Z" fill="black"/>
<path d="M73.3865 298.667C70.7264 298.636 68.1135 297.96 65.7723 296.697C63.4312 295.433 61.432 293.62 59.9465 291.413C52.2665 279.68 45.6532 268.587 39.6799 257.493C38.5853 255.638 37.8768 253.58 37.5967 251.444C37.3167 249.308 37.4708 247.138 38.05 245.063C38.6291 242.988 39.6213 241.051 40.9671 239.369C42.3128 237.687 43.9845 236.294 45.8817 235.273C47.7789 234.253 49.8627 233.626 52.0081 233.43C54.1535 233.235 56.3163 233.474 58.3668 234.135C60.4173 234.795 62.3133 235.863 63.9411 237.274C65.5689 238.685 66.895 240.411 67.8399 242.347C73.3865 252.587 79.5732 263.68 86.8265 273.92C88.8432 277.421 89.4798 281.549 88.6116 285.496C87.7434 289.442 85.4331 292.922 82.1332 295.253C79.6057 297.207 76.5693 298.392 73.3865 298.667Z" fill="black"/>
</svg>
