<svg aria-hidden="true" width="16px" height="16px" viewBox="0 0 24 24">
    <path
        d="m7.2 22.76a7.7 7.7 0 0 1 3.8-5.35 7.8 7.8 0 0 1 -4.26-5 7.64 7.64 0 0 1 -3.8 5.32 7.81 7.81 0 0 1 4.26 5.03z"
        fill="#fff"></path>
    <path
        d="m7.2 23.51a.75.75 0 0 1 -.71-.51 7.1 7.1 0 0 0 -3.84-4.59.74.74 0 0 1 -.46-.65.76.76 0 0 1 .4-.7 6.89 6.89 0 0 0 3.41-4.83.75.75 0 0 1 .7-.58.71.71 0 0 1 .74.51 7.1 7.1 0 0 0 3.85 4.56.75.75 0 0 1 .06 1.35 7 7 0 0 0 -3.43 4.86.76.76 0 0 1 -.69.58zm-2.79-5.85a8.2 8.2 0 0 1 2.7 3 8 8 0 0 1 2.42-3.19 8 8 0 0 1 -2.69-3 8.14 8.14 0 0 1 -2.43 3.19z">
    </path>
    <path
        d="m17.58 23.49a14 14 0 0 1 -7-2.25.75.75 0 0 1 .8-1.24c3.66 2.2 7.2 2.66 9 1.18s1.78-4.94-.19-8.74a.75.75 0 1 1 1.33-.69c2.34 4.52 2.27 8.58-.2 10.59a5.78 5.78 0 0 1 -3.74 1.15z">
    </path>
    <path
        d="m19 9.75a.74.74 0 0 1 -.6-.3 22.46 22.46 0 0 0 -1.62-1.85c-4.78-5.12-11.13-7.51-13.93-5.22-1.43 1.17-1.74 3.45-.85 6.27a.76.76 0 0 1 -.49.94.75.75 0 0 1 -.94-.49c-1.09-3.43-.57-6.31 1.33-7.88 3.51-2.87 10.53-.51 16 5.35a25.5 25.5 0 0 1 1.67 2 .75.75 0 0 1 -.15 1 .72.72 0 0 1 -.42.18z">
    </path>
    <path
        d="m3.44 14a.77.77 0 0 1 -.63-.34c-.36-.55-.67-1.07-.95-1.59a.75.75 0 1 1 1.32-.71c.26.48.55 1 .89 1.48a.76.76 0 0 1 -.22 1 .78.78 0 0 1 -.41.16z">
    </path>
</svg>