<svg width="512" height="512" viewBox="0 0 512 512" fill="none" xmlns="http://www.w3.org/2000/svg">
<path d="M437.02 74.98C388.667 26.629 324.38 0 256 0C200.977 0 148.533 17.207 104.337 49.76C101.002 52.217 100.29 56.911 102.746 60.246C105.203 63.581 109.898 64.294 113.232 61.837C154.833 31.196 204.201 15 256 15C320.374 15 380.894 40.068 426.413 85.587C471.932 131.106 497 191.626 497 256C497 320.374 471.932 380.894 426.413 426.413C380.894 471.932 320.374 497 256 497C191.626 497 131.106 471.932 85.587 426.413C40.068 380.894 15 320.374 15 256C15 192.396 39.569 132.387 84.181 87.029C87.085 84.076 87.046 79.327 84.093 76.423C81.139 73.518 76.391 73.557 73.487 76.511C26.098 124.692 0 188.436 0 256C0 324.38 26.629 388.667 74.98 437.02C123.333 485.371 187.62 512 256 512C324.38 512 388.667 485.371 437.02 437.02C485.371 388.667 512 324.38 512 256C512 187.62 485.371 123.333 437.02 74.98Z" fill="black"/>
<path d="M135.401 219.018C110.759 240.167 81.745 275.145 83.464 321.675C84.228 342.328 92.261 363.112 105.505 378.697C128.229 405.439 169.506 414.231 198.482 391.727C209.965 395.821 222.269 398.487 235.084 399.606C244.501 400.413 245.8 385.485 236.389 384.663C227.211 383.861 218.366 382.141 209.996 379.639C218.912 366.931 221.997 351.104 218.667 334.663C213.521 309.252 195.076 294.678 178.802 281.819C158.939 266.124 143.25 253.727 147.692 225.892C148.771 219.136 140.592 214.566 135.401 219.018ZM169.502 293.588C185.14 305.944 199.91 317.615 203.966 337.641C206.554 350.42 203.854 364.193 195.237 374.193C169.553 362.78 150.287 343.333 143.313 319.899C142.132 315.929 137.959 313.669 133.985 314.85C130.015 316.032 127.755 320.208 128.936 324.178C134.814 343.926 147.814 361.52 166.53 375.059C171.349 378.545 176.463 381.689 181.829 384.481C174.619 388.024 166.519 389.646 158.514 389.646C124.057 389.645 99.687 354.453 98.455 321.121C97.239 288.223 114.167 261.504 132.42 242.446C135.534 266.746 153.389 280.856 169.502 293.588Z" fill="black"/>
<path d="M315.735 283.517C308.658 298.07 307.457 313.645 306.295 328.708C304.502 351.95 300.495 375.138 277.216 385.914C270.973 388.774 271.787 398.29 278.519 399.989C295.701 404.358 311.442 406.544 325.917 406.544C343.067 406.544 358.437 403.474 372.302 397.326C381.167 393.395 375.086 379.68 366.222 383.613C347.772 391.794 325.839 393.621 299.565 389.146C316.321 373.931 319.602 351.241 321.252 329.862C322.355 315.568 323.397 302.066 329.226 290.077C337.281 273.513 354.917 261.413 373.768 263.713C378.627 291.399 373.236 318.24 357.678 337.104C351.597 344.477 362.944 354.293 369.25 346.648C382.36 330.753 389.709 310.148 390.504 287.062C390.707 281.148 390.469 275.18 389.801 269.2C400.937 275.604 409.992 286.767 413.659 299.791C418.714 317.748 413.8 339.118 400.513 356.957C394.72 364.733 406.75 373.694 412.542 365.917C428.59 344.372 434.406 318.132 428.098 295.726C422.172 274.677 405.93 257.805 386.53 251.312C383.522 239.476 378.863 227.755 372.632 216.475C367.943 207.987 354.813 215.24 359.502 223.728C363.958 231.795 367.465 240.098 370.059 248.442C347.779 248.074 326.31 261.771 315.735 283.517Z" fill="black"/>
<path d="M146.894 193.853C141.58 201.623 153.559 210.679 159.275 202.321C164.476 194.717 170.315 187.853 176.601 181.787C183.3 195.791 195.579 206.244 211.539 211.408C234.238 218.753 256.124 211.218 277.145 202.594C300.566 192.985 319.065 185.395 341.142 202.923C346.499 207.176 354.497 202.293 353.161 195.585C346.821 163.736 330.576 121.294 289.186 99.966C270.814 90.5 248.763 87.304 228.685 91.198C206.599 95.482 189.102 107.784 179.419 125.839C172.383 138.958 169.777 152.771 171.718 165.825C162.515 173.821 154.156 183.236 146.894 193.853ZM192.636 132.928C203.085 113.447 224.147 104.59 245.794 104.59C258.434 104.59 271.274 107.611 282.314 113.3C311.578 128.38 326.555 156.238 334.208 181.493C311.504 172.285 290.451 180.922 271.452 188.717C253.014 196.282 235.598 203.426 216.158 197.137C203.753 193.123 193.076 184.013 188.589 171.598C211.134 154.817 237.531 147.569 261.374 152.988C265.413 153.907 269.432 151.376 270.35 147.337C271.268 143.298 268.738 139.279 264.699 138.361C244.606 133.794 222.898 136.491 201.918 146.158C196.517 148.647 191.268 151.561 186.202 154.866C186.606 147.616 188.751 140.17 192.636 132.928Z" fill="black"/>
</svg>
