<svg width="512" height="512" viewBox="0 0 512 512" fill="none" xmlns="http://www.w3.org/2000/svg">
<path d="M130.221 47.0847L130.221 47.0845C151.216 31.62 169.686 23.051 189.506 18.3854C209.248 13.7383 230.197 13 256 13C320.902 13 381.934 38.2808 427.828 84.1724L425.706 86.2938L427.828 84.1725C473.719 130.066 499 191.098 499 256C499 320.902 473.719 381.934 427.828 427.828L425.706 425.706L427.828 427.828C381.934 473.719 320.902 499 256 499C191.098 499 130.066 473.719 84.1725 427.828L86.2938 425.706L84.1724 427.828C38.2808 381.934 13 320.902 13 256C13 191.872 37.7761 131.357 82.7547 85.6259L130.221 47.0847ZM130.221 47.0847C125.76 50.3707 124.808 56.649 128.093 61.1096L128.093 61.1101C131.378 65.5693 137.658 66.5244 142.118 63.2377M130.221 47.0847L142.118 63.2377M142.118 63.2377C161.339 49.0811 177.741 41.5893 195.251 37.595C212.853 33.5799 231.705 33.0625 256 33.0625C315.555 33.0625 371.529 56.2477 413.641 98.3591C455.752 140.471 478.938 196.445 478.938 256C478.938 315.555 455.752 371.529 413.641 413.641C371.529 455.752 315.555 478.938 256 478.938C196.445 478.938 140.471 455.752 98.3591 413.641C56.2477 371.529 33.0625 315.555 33.0625 256C33.0625 197.158 55.7865 141.656 97.0585 99.6933L97.0587 99.6932C100.943 95.7438 100.891 89.3922 96.9407 85.5076C92.9907 81.6231 86.6402 81.6741 82.7552 85.6254L142.118 63.2377Z" fill="black" stroke="black" stroke-width="6"/>
<path d="M133.231 315.05C131.652 309.739 126.069 306.717 120.756 308.296L120.755 308.297C115.445 309.878 112.423 315.463 114.002 320.772L114.002 320.773C119.724 339.997 132.35 357.018 150.364 370.049C153.304 372.176 156.356 374.169 159.51 376.027C154.739 377.562 149.668 378.293 144.607 378.293C129.555 378.293 116.562 370.62 107.1 358.996C97.6209 347.351 91.8531 331.918 91.2995 316.94C90.2901 289.63 103.127 266.883 118.293 249.731C123.294 270.084 139.143 282.606 152.734 293.344L153.048 293.593L153.048 293.593C167.862 305.297 180.727 315.603 184.278 333.134C186.4 343.611 184.442 354.708 178.16 363.107C155.75 352.573 139.277 335.364 133.231 315.05ZM133.231 315.05L130.356 315.905M133.231 315.05L130.356 315.905M130.356 315.905C136.894 337.875 154.956 356.106 179.035 366.806L163.162 374.666C159.327 372.514 155.64 370.163 152.122 367.618C134.576 354.925 122.388 338.431 116.878 319.917C115.77 316.195 117.889 312.28 121.611 311.172C125.337 310.065 129.249 312.183 130.356 315.905ZM120.985 219.052L120.985 219.053C97.6403 239.088 69.5872 272.683 71.2496 317.681L71.2496 317.681C71.9904 337.709 79.7674 357.841 92.6249 372.971C114.418 398.618 154.013 407.614 182.603 386.606C193.176 390.23 204.438 392.598 216.13 393.619L216.135 393.62C219.213 393.883 221.818 392.842 223.669 390.991C225.458 389.201 226.407 386.803 226.611 384.459C226.815 382.116 226.296 379.59 224.843 377.519C223.339 375.376 220.953 373.902 217.876 373.633C210.876 373.021 204.091 371.827 197.596 370.122C204.691 358.145 206.916 343.841 203.941 329.151C198.898 304.25 180.847 289.988 165.744 278.055L165.487 277.851C156.079 270.418 148.15 264.119 142.974 256.562C137.941 249.214 135.458 240.567 137.424 228.247C138.876 219.151 127.969 213.063 120.985 219.052Z" fill="black" stroke="black" stroke-width="6"/>
<path d="M347.347 289.259C354.136 275.299 368.503 265.203 383.826 266.015C387.588 290.495 382.496 313.773 369.009 330.126C367.037 332.517 366.39 335.263 366.823 337.852C367.243 340.363 368.642 342.548 370.457 344.08C372.272 345.613 374.669 346.634 377.245 346.579C379.904 346.523 382.482 345.321 384.486 342.891L384.486 342.891L422.758 359.047M347.347 289.259L344.649 287.947M347.347 289.259L344.649 287.947M347.347 289.259C342.176 299.896 341.208 311.957 340.165 325.476L337.174 325.246L340.165 325.476C338.762 343.648 336.087 363.843 323.077 378.745C344.744 381.681 362.835 379.671 378.116 372.895C380.968 371.63 383.796 371.732 386.182 372.86C388.493 373.954 390.197 375.915 391.159 378.085C392.12 380.254 392.43 382.833 391.689 385.28C390.924 387.806 389.101 389.971 386.249 391.236L385.033 388.493L386.249 391.236C372.823 397.189 357.993 400.135 341.547 400.135C327.679 400.135 312.672 398.041 296.377 393.898C287.303 391.608 286.231 378.927 294.633 375.07C314.732 365.764 318.472 345.817 320.16 323.933L320.179 323.696C321.256 309.725 322.42 294.641 329.304 280.485C339.031 260.483 358.212 247.289 378.815 246.01C376.605 239.66 373.809 233.354 370.407 227.196C368.899 224.465 368.754 221.639 369.671 219.165C370.559 216.766 372.364 214.898 374.44 213.751C376.517 212.604 379.059 212.071 381.562 212.596C384.145 213.137 386.46 214.764 387.968 217.495L387.969 217.495C393.655 227.79 397.981 238.482 400.872 249.303C419.33 256.071 434.568 272.322 440.23 292.43C446.437 314.478 440.668 340.025 425.164 360.839M344.649 287.947C352.201 272.418 368.735 261.075 386.408 263.231M344.649 287.947L386.408 263.231M425.164 360.839L422.758 359.047M425.164 360.839C425.164 360.839 425.164 360.839 425.164 360.839L422.758 359.047M425.164 360.839C423.301 363.341 420.787 364.64 418.155 364.828C415.604 365.01 413.157 364.138 411.255 362.721C409.352 361.304 407.816 359.209 407.26 356.713C406.686 354.137 407.211 351.357 409.075 348.855M422.758 359.047C417.328 366.338 406.05 357.937 411.481 350.647M409.075 348.855L411.481 350.647M409.075 348.855C421.095 332.717 425.355 313.629 420.918 297.867M409.075 348.855C409.075 348.855 409.075 348.855 409.075 348.855L411.481 350.647M411.481 350.647L420.918 297.867M420.918 297.867L423.805 297.054L420.918 297.867C420.918 297.867 420.918 297.867 420.918 297.867ZM386.408 263.231C390.963 289.187 385.909 314.35 371.323 332.035C365.622 338.947 376.26 348.15 382.172 340.983L386.408 263.231ZM401.796 272.105C401.697 270.863 401.577 269.619 401.438 268.375C402.535 269.006 403.611 269.686 404.661 270.412C404.782 271.726 404.881 273.038 404.958 274.35C403.933 273.552 402.877 272.803 401.796 272.105Z" fill="black" stroke="black" stroke-width="6"/>
<path d="M151.237 176.044L151.237 176.043C157.863 166.357 165.452 157.703 173.8 150.268C172.319 137.816 174.983 124.822 181.562 112.556C191.111 94.7502 208.329 82.7218 229.821 78.553L229.821 78.553C249.313 74.7727 270.67 77.872 288.486 87.0513L288.486 87.0514C328.513 107.677 344.025 148.603 350.031 178.775M151.237 176.044L347.088 179.361M151.237 176.044C147.591 181.374 150.076 187.07 153.887 189.812C155.818 191.201 158.297 192.034 160.877 191.747C163.539 191.451 166.002 189.993 167.796 187.37L151.237 176.044ZM350.031 178.775L347.088 179.361M350.031 178.775C350.031 178.775 350.031 178.775 350.031 178.775L347.088 179.361M350.031 178.775C351.829 187.804 341.165 194.313 333.955 188.59L335.821 186.24C340.843 190.228 348.341 185.65 347.088 179.361M199.24 122.038L199.24 122.038C196.871 126.454 195.245 130.925 194.344 135.337C197.511 133.5 200.746 131.818 204.043 130.299L204.043 130.298C224.235 120.994 245.261 118.342 264.82 122.788C270.223 124.016 273.606 129.391 272.379 134.793C271.151 140.195 265.776 143.581 260.373 142.352L199.24 122.038ZM199.24 122.038C208.359 105.036 226.874 97.0531 246.432 97.0531C257.823 97.0531 269.387 99.7796 279.295 104.886C303.589 117.404 317.111 139.749 324.618 161.379C304.429 155.752 285.744 163.419 269.719 169.994L269.348 170.147L270.486 172.922M199.24 122.038L270.486 172.922M270.486 172.922L269.347 170.147C251.881 177.313 236.59 183.467 219.572 177.962C209.402 174.671 200.692 167.52 196.454 157.925C216.627 143.567 239.704 137.654 260.373 142.351L270.486 172.922ZM213.394 197.049L214.318 194.195L213.394 197.049C213.394 197.049 213.394 197.049 213.394 197.049ZM179.314 168.653C180.057 167.898 180.807 167.156 181.563 166.425C182.016 167.371 182.496 168.3 183.002 169.211C182.263 169.935 181.53 170.672 180.805 171.42C180.283 170.515 179.786 169.592 179.314 168.653Z" fill="black" stroke="black" stroke-width="6"/>
</svg>
