<svg width="512" height="512" viewBox="0 0 512 512" fill="none" xmlns="http://www.w3.org/2000/svg">
<path d="M152.962 388.693C149.463 388.716 146.056 387.576 143.276 385.452C140.496 383.328 138.5 380.341 137.602 376.96C116.268 296.107 75.3085 240.427 17.7085 211.2C15.1219 209.815 12.9596 207.754 11.4521 205.237C9.94462 202.72 9.14844 199.841 9.14844 196.907C9.14844 193.973 9.94462 191.094 11.4521 188.576C12.9596 186.059 15.1219 183.998 17.7085 182.613C76.3752 152.107 116.908 97.28 137.815 17.7067C138.786 14.3887 140.766 11.4554 143.481 9.31445C146.195 7.17349 149.509 5.93114 152.962 5.76C156.488 5.72639 159.926 6.85848 162.742 8.98031C165.559 11.1021 167.595 14.0949 168.535 17.4933C189.868 97.92 230.615 153.387 288.428 182.613C291.065 183.954 293.279 186 294.823 188.523C296.367 191.047 297.181 193.948 297.175 196.907C297.157 199.86 296.333 202.752 294.792 205.271C293.25 207.79 291.05 209.84 288.428 211.2C229.975 241.493 189.655 296.533 168.535 376.747C167.612 380.132 165.616 383.126 162.847 385.28C160.077 387.435 156.683 388.632 153.175 388.693H152.962ZM56.3218 196.693C100.51 227.556 134.225 271.17 152.962 321.707C171.697 271.166 205.506 227.601 249.815 196.907C205.649 166.207 171.927 122.734 153.175 72.32C134.187 122.662 100.427 166.09 56.3218 196.907V196.693Z" fill="black"/>
<path d="M400.426 506.24C396.9 506.274 393.462 505.142 390.645 503.02C387.829 500.898 385.793 497.905 384.853 494.507C380.357 471.766 371.019 450.26 357.473 431.449C343.926 412.639 326.489 396.965 306.346 385.493C303.688 384.196 301.449 382.178 299.882 379.67C298.315 377.162 297.484 374.264 297.484 371.307C297.484 368.349 298.315 365.451 299.882 362.943C301.449 360.435 303.688 358.417 306.346 357.12C326.309 345.635 343.572 329.996 356.969 311.263C370.366 292.529 379.584 271.137 383.999 248.533C384.89 245.131 386.878 242.116 389.654 239.957C392.431 237.797 395.842 236.613 399.359 236.587C402.867 236.648 406.261 237.845 409.031 240C411.8 242.154 413.796 245.148 414.719 248.533C419.246 271.179 428.602 292.582 442.15 311.284C455.698 329.986 473.119 345.547 493.226 356.907C495.847 358.267 498.048 360.317 499.589 362.836C501.13 365.355 501.955 368.247 501.973 371.2C501.999 374.136 501.216 377.023 499.711 379.544C498.206 382.065 496.036 384.123 493.439 385.493C473.272 396.908 455.801 412.535 442.217 431.31C428.632 450.085 419.254 471.567 414.719 494.293C413.828 497.696 411.841 500.711 409.064 502.87C406.288 505.03 402.877 506.214 399.359 506.24H400.426ZM343.893 371.2C368.443 389.928 387.825 414.595 400.213 442.88C412.779 414.702 432.217 390.129 456.746 371.413C432.243 352.725 412.868 328.139 400.426 299.947C387.869 328.071 368.426 352.577 343.893 371.2Z" fill="black"/>
</svg>
