<svg width="512" height="512" viewBox="0 0 512 512" fill="none" xmlns="http://www.w3.org/2000/svg">
<path d="M486.552 288.14H447.956C437.5 288.14 428.994 296.646 428.994 307.1V315.984C390.33 304.204 348.308 307.388 312.028 325.234C311.448 325.518 220.87 369.83 220.29 370.114L64.338 285.506C45.882 274.936 22.232 281.334 11.62 299.772C2.03 316.456 6.288 337.87 21.528 349.58C28.7 355.092 112.602 432.11 152.924 469.122C182.558 496.324 182.652 496.394 183.21 496.812C194.272 505.252 207.958 509.638 221.842 509.638C229.654 509.638 237.528 508.25 245.034 505.412L372.532 457.278C391.044 451.064 410.9 451.744 428.994 459.094V465.932C428.994 476.388 437.5 484.892 447.956 484.892H486.552C497.008 484.892 505.514 476.386 505.514 465.932V307.1C505.514 296.646 497.008 288.14 486.552 288.14ZM367.286 442.164C367.196 442.194 367.106 442.226 367.018 442.26L239.38 490.446C223.75 496.36 206.062 493.988 193.096 484.232C191.41 482.734 179.148 471.48 163.742 457.336C103.39 401.938 38.406 342.374 31.278 336.894C22.364 330.044 19.876 317.514 25.488 307.75C31.708 296.944 45.568 293.194 56.544 299.48L202.65 378.75L201.36 379.382C192.664 383.762 186.202 391.278 183.162 400.546C173.034 431.454 205.494 458.86 234.062 444.454L353.528 386.016C357.496 384.074 359.14 379.284 357.198 375.314C355.256 371.348 350.47 369.704 346.496 371.644L226.942 430.126C210.778 438.28 192.734 422.716 198.364 405.534C201.352 396.422 208.3 393.8 212.486 391.75C227.898 384.204 218.956 388.58 319.068 339.604C353.182 322.826 392.934 320.446 428.988 332.79V442.062C408.966 435.396 387.462 435.356 367.286 442.164V442.164ZM489.514 465.932C489.514 467.564 488.184 468.892 486.552 468.892H447.956C446.324 468.892 444.994 467.564 444.994 465.932V307.1C444.994 305.468 446.324 304.14 447.956 304.14H486.552C488.184 304.14 489.514 305.468 489.514 307.1V465.932Z" fill="black"/>
<path d="M25.446 223.86H64.044C74.5 223.86 83.004 215.354 83.004 204.9V196.024C123.374 208.322 165.158 203.888 199.972 186.766C200.552 186.482 291.13 142.17 291.71 141.886C461.962 234.254 453.404 231.594 466.796 231.594C480.19 231.594 493.238 224.638 500.38 212.228C509.97 195.544 505.712 174.132 490.472 162.42C481.908 155.838 328.838 15.224 328.79 15.188C311.504 2.00198 287.812 -1.29403 266.964 6.58797L139.468 54.72C120.956 60.932 101.1 60.252 83.006 52.904V46.066C83.006 35.61 74.5 27.106 64.046 27.106H25.446C14.99 27.106 6.48596 35.612 6.48596 46.066V204.898C6.48596 215.354 14.992 223.86 25.446 223.86V223.86ZM144.98 69.742L272.618 21.556C288.25 15.644 305.938 18.014 318.902 27.768C325.644 33.758 470.16 166.988 480.722 175.104C489.636 181.954 492.124 194.486 486.512 204.25C480.294 215.054 466.434 218.808 455.454 212.52L309.348 133.25C319.486 128.286 325.764 120.824 328.836 111.454C338.852 80.89 306.772 53.014 277.936 67.548L158.47 125.986C154.502 127.928 152.858 132.718 154.8 136.688C156.744 140.656 161.532 142.3 165.502 140.358L285.056 81.876C301.218 73.72 319.262 89.286 313.634 106.468C311.93 111.664 308.312 115.876 303.524 118.288C263.92 137.67 333.778 103.492 192.93 172.398C158.816 189.176 119.062 191.556 83.008 179.21V69.942C104.504 77.094 128.06 76.134 144.98 69.742V69.742ZM22.486 46.068C22.486 44.436 23.814 43.108 25.446 43.108H64.044C65.676 43.108 67.004 44.436 67.004 46.068V204.9C67.004 206.532 65.676 207.86 64.044 207.86H25.446C23.814 207.86 22.486 206.532 22.486 204.9V46.068Z" fill="black"/>
<path d="M286.17 201.098C274.856 201.098 264.194 205.34 256 213.07C238.78 196.836 211.564 197.14 194.718 213.986C177.562 231.142 177.562 259.056 194.718 276.212L243.272 324.766C246.782 328.274 251.392 330.028 256 330.028C260.61 330.028 265.218 328.274 268.728 324.766L317.282 276.212C334.436 259.056 334.438 231.142 317.282 213.986C308.972 205.676 297.922 201.098 286.17 201.098V201.098ZM305.968 264.898L257.414 313.452C256.634 314.234 255.366 314.232 254.586 313.452L206.03 264.898C188.422 247.29 201.01 217.112 225.83 217.112C232.998 217.112 240.17 219.842 245.628 225.3L250.342 230.014C253.462 233.138 258.532 233.138 261.656 230.014L266.37 225.3C271.658 220.01 278.69 217.098 286.168 217.098C310.928 217.098 323.618 247.248 305.968 264.898Z" fill="black"/>
</svg>
