<svg width="512" height="516" viewBox="0 0 512 516" fill="none" xmlns="http://www.w3.org/2000/svg">
<path d="M366.652 442.267C386.36 435.618 407.313 435.372 426.988 441.328V336.227C391.791 324.57 353.156 327.068 319.951 343.399L319.947 343.401C238.112 383.435 229.147 387.82 220.183 392.208C218.181 393.188 216.179 394.169 213.366 395.546L55.5902 303.238L55.57 303.227L55.5501 303.216C45.5226 297.473 32.887 300.906 27.222 310.747C22.1076 319.645 24.3794 331.07 32.4966 337.308L32.497 337.308C36.1483 340.116 54.2724 356.467 78.8984 378.918C103.582 401.421 134.919 430.164 165.094 457.863L165.095 457.863C180.34 471.859 192.478 483 194.364 484.683M366.652 442.267C366.652 442.267 366.653 442.267 366.654 442.267L367.286 444.164L366.647 442.269C366.648 442.268 366.65 442.268 366.652 442.267ZM366.652 442.267C366.54 442.305 366.424 442.346 366.306 442.391L366.312 442.389L367.018 444.26L366.297 442.394L238.674 490.575L238.672 490.575C223.686 496.246 206.756 493.971 194.364 484.683M194.364 484.683C194.385 484.702 194.406 484.72 194.424 484.737L193.096 486.232L194.298 484.634C194.32 484.65 194.342 484.667 194.364 484.683ZM9.8866 300.774L9.88604 300.775C-0.201984 318.326 4.2733 340.844 20.3093 353.166C23.8066 355.854 46.4733 376.39 73.4463 401.016C100.18 425.422 131.003 453.715 151.174 472.23L151.572 472.595C166.388 486.196 173.822 493.016 177.621 496.487C181.346 499.891 181.628 500.126 182.004 500.408C193.431 509.123 207.545 513.638 221.842 513.638C229.89 513.638 238.004 512.208 245.741 509.283L373.203 461.162C390.823 455.257 409.688 455.752 426.994 462.452V467.932C426.994 479.493 436.396 488.892 447.956 488.892H486.552C498.112 488.892 507.514 479.491 507.514 467.932V309.1C507.514 297.541 498.112 288.14 486.552 288.14H447.956C436.396 288.14 426.994 297.541 426.994 309.1V315.307C388.569 304.294 347.081 307.763 311.145 325.439C310.71 325.653 287.465 337.024 264.486 348.266C244.537 358.025 224.79 367.686 220.337 369.864L65.3117 285.759C45.9015 274.657 21.0448 281.387 9.8866 300.774ZM487.514 467.932C487.514 468.458 487.081 468.892 486.552 468.892H447.956C447.427 468.892 446.994 468.458 446.994 467.932V309.1C446.994 308.574 447.427 308.14 447.956 308.14H486.552C487.081 308.14 487.514 308.574 487.514 309.1V467.932Z" fill="black" stroke="black" stroke-width="4"/>
<path d="M502.114 215.225L502.113 215.226C494.599 228.283 480.873 235.594 466.796 235.594C466.428 235.594 466.073 235.596 465.726 235.598C462.965 235.616 460.753 235.63 457.123 234.472C453.192 233.217 447.538 230.581 437.149 225.15C425.302 218.958 407.106 209.027 377.964 193.121C356.043 181.157 327.928 165.813 291.663 146.136C287.096 148.37 266.432 158.479 245.967 168.491C223.474 179.495 201.222 190.381 200.854 190.561C200.853 190.562 200.852 190.562 200.851 190.562L199.972 188.766C165.733 205.605 124.751 210.172 85.004 198.619L502.114 215.225ZM502.114 215.225C512.202 197.674 507.727 175.158 491.691 162.834C489.634 161.254 478.555 151.319 462.947 137.162C447.394 123.056 427.459 104.863 407.787 86.8734C388.116 68.8839 368.711 51.0988 354.221 37.8086C346.975 31.1636 340.959 25.6424 336.752 21.7813C334.649 19.8507 332.998 18.3352 331.872 17.3017L330.586 16.1213L330.255 15.8175L330.169 15.7391L330.145 15.7172L330.135 15.7077C330.13 15.7029 330.067 15.649 330.003 15.5981L330.003 15.5978C312.152 1.98075 287.731 -1.40131 266.258 6.71689C266.257 6.717 266.257 6.71712 266.257 6.71723L138.797 54.8357C121.177 60.7393 102.312 60.2438 85.006 53.5457V48.066C85.006 36.5053 75.6044 27.106 64.046 27.106H25.446C13.8853 27.106 4.48596 36.5076 4.48596 48.066V206.898C4.48596 218.458 13.8873 227.86 25.446 227.86H64.044C75.6047 227.86 85.004 218.458 85.004 206.9V200.701L502.114 215.225ZM85.008 179.773V74.6729C106.197 81.0457 129.013 79.912 145.687 73.6129L273.324 25.4271L273.325 25.4267C288.314 19.7581 305.244 22.0316 317.634 31.3172C319.574 33.0481 330.69 43.2524 346.277 57.5615C360.628 70.7358 378.769 87.3897 397.029 104.114C416.175 121.65 435.444 139.254 450.586 152.983C465.678 166.665 476.779 176.596 479.503 178.69C487.62 184.927 489.892 196.354 484.779 205.252C479.116 215.092 466.48 218.529 456.448 212.784L456.428 212.773L456.408 212.762L313.552 135.255C322.244 130.114 327.844 122.898 330.736 114.077L330.737 114.077C341.299 81.844 307.487 52.4247 277.046 67.7567C277.043 67.7585 277.039 67.7602 277.036 67.762L157.591 126.189L157.591 126.19C152.631 128.617 150.576 134.604 153.003 139.567L153.004 139.568C155.433 144.526 161.418 146.582 166.381 144.155L285.935 85.6726L285.946 85.6671L285.957 85.6615C300.523 78.311 316.809 92.3479 311.734 107.845C310.194 112.539 306.936 116.327 302.633 118.497C289.104 125.118 288.359 125.484 287.614 125.849C286.179 126.553 284.744 127.254 192.051 172.601L192.047 172.603C158.842 188.934 120.205 191.432 85.008 179.773ZM24.486 48.068C24.486 47.5406 24.9185 47.108 25.446 47.108H64.044C64.5714 47.108 65.004 47.5406 65.004 48.068V206.9C65.004 207.427 64.5714 207.86 64.044 207.86H25.446C24.9185 207.86 24.486 207.427 24.486 206.9V48.068Z" fill="black" stroke="black" stroke-width="4"/>
<path d="M241.858 328.18L241.858 328.181C245.759 332.08 250.885 334.028 256 334.028C261.117 334.028 266.241 332.08 270.142 328.181L270.142 328.18L318.696 279.626L317.282 278.212L318.696 279.626C336.631 261.689 336.633 232.509 318.696 214.572C310.011 205.887 298.452 201.098 286.17 201.098C274.968 201.098 264.367 205.081 255.999 212.371C237.949 196.668 210.476 197.4 193.304 214.572C175.367 232.509 175.367 261.689 193.304 279.626L241.858 328.18ZM255.998 314.04C255.998 314.04 255.998 314.04 255.998 314.04L255.998 314.04Z" fill="black" stroke="black" stroke-width="4"/>
</svg>
