<svg id="Layer_1" height="512" viewBox="0 0 512 512" width="512" xmlns="http://www.w3.org/2000/svg" data-name="Layer 1"><path d="m337.981 300h-6.981v-111.187a7.773 7.773 0 0 0 -7.918-7.813h-9.082v-145.548c2-11.112-.2-20.683-6.636-27.115-15.7-15.7-50.313-4.985-80.22 24.921-26.831 26.831-38.144 57.262-29.144 74.575v73.167h-9.082a7.773 7.773 0 0 0 -7.918 7.813v111.187h-6.981a7.855 7.855 0 0 0 -8.019 7.809v165.071a38.162 38.162 0 0 0 38.019 38.12h103.962a38.162 38.162 0 0 0 38.019-38.12v-165.071a7.855 7.855 0 0 0 -8.019-7.809zm-99.448-255.428c19.215-19.215 38.207-27.47 49.3-27.47 3.623 0 6.4.881 8.071 2.549 6.774 6.774.57 31.876-24.921 57.368s-50.592 31.693-57.367 24.92-.574-31.876 24.917-57.367zm-24.533 75.105a40.111 40.111 0 0 0 7.472.776c17.288 0 40.272-11.5 60.9-32.121 5.903-5.907 10.628-11.989 15.628-18.067v110.735h-84zm-17 77.323h118v103h-118zm133 275.88a22.144 22.144 0 0 1 -22.019 22.12h-103.962a22.144 22.144 0 0 1 -22.019-22.12v-156.88h148z"/><path d="m210 463.631a8 8 0 0 0 8-8v-98.089a8 8 0 1 0 -16 0v98.089a8 8 0 0 0 8 8z"/></svg>