<svg width="512" height="512" viewBox="0 0 512 512" fill="none" xmlns="http://www.w3.org/2000/svg">
<g clip-path="url(#clip0)">
<path d="M337.981 300H331V188.813C331.006 187.777 330.804 186.749 330.406 185.792C330.009 184.835 329.424 183.967 328.687 183.239C327.949 182.511 327.073 181.938 326.11 181.553C325.148 181.169 324.118 180.981 323.082 181H314V46.499C316 35.387 313.8 25.816 307.364 19.384C291.664 3.684 257.051 14.399 227.144 44.305C200.313 71.136 189 101.567 198 118.88V181H188.918C187.882 180.981 186.852 181.169 185.89 181.553C184.927 181.938 184.051 182.511 183.313 183.239C182.576 183.967 181.991 184.835 181.594 185.792C181.196 186.749 180.994 187.777 181 188.813V300H174.019C172.978 299.978 171.942 300.164 170.973 300.546C170.004 300.928 169.121 301.499 168.375 302.226C167.628 302.952 167.034 303.82 166.627 304.779C166.219 305.737 166.006 306.767 166 307.809V472.88C166.011 482.969 170.017 492.643 177.142 499.787C184.266 506.931 193.93 510.962 204.019 511H307.981C318.07 510.962 327.734 506.931 334.858 499.787C341.983 492.643 345.989 482.969 346 472.88V307.809C345.994 306.767 345.781 305.737 345.373 304.779C344.966 303.82 344.372 302.952 343.625 302.226C342.879 301.499 341.996 300.928 341.027 300.546C340.058 300.164 339.022 299.978 337.981 300ZM238.533 55.619C257.748 36.404 276.74 28.149 287.833 28.149C291.456 28.149 294.233 29.03 295.904 30.698C302.678 37.472 296.474 62.574 270.983 88.066C245.492 113.558 220.391 119.759 213.616 112.986C206.841 106.213 213.042 81.11 238.533 55.619ZM214 130.724C216.461 131.216 218.963 131.476 221.472 131.5C238.76 131.5 261.744 120 282.372 99.379C288.275 93.472 293 87.39 298 81.312V181H214V130.724ZM197 197H315V300H197V197ZM330 472.88C329.994 478.727 327.675 484.335 323.55 488.479C319.425 492.623 313.828 494.967 307.981 495H204.019C198.172 494.967 192.575 492.623 188.45 488.479C184.325 484.335 182.006 478.727 182 472.88V316H330V472.88Z" fill="black" stroke="black" stroke-width="8"/>
<path d="M210 459C212.122 459 214.157 458.261 215.657 456.946C217.157 455.631 218 453.848 218 451.988V366.012C218 364.152 217.157 362.369 215.657 361.054C214.157 359.739 212.122 359 210 359C207.878 359 205.843 359.739 204.343 361.054C202.843 362.369 202 364.152 202 366.012V451.988C202 453.848 202.843 455.631 204.343 456.946C205.843 458.261 207.878 459 210 459Z" fill="black" stroke="black" stroke-width="8"/>
</g>
<defs>
<clipPath id="clip0">
<rect width="512" height="512" fill="white"/>
</clipPath>
</defs>
</svg>
