<svg width="512" height="512" viewBox="0 0 512 512" fill="none" xmlns="http://www.w3.org/2000/svg">
<path d="M385.927 140.587C386.973 138.62 387.488 136.414 387.42 134.187C387.541 133.052 387.541 131.908 387.42 130.774C387.526 128.997 387.526 127.216 387.42 125.44V22.6135C387.718 19.3096 386.891 16.002 385.074 13.2269C383.647 10.8837 381.642 8.94658 379.251 7.60166C376.86 6.25674 374.164 5.54916 371.42 5.54688H140.807C138.329 5.57896 135.89 6.17136 133.673 7.27971C131.457 8.38806 129.52 9.98362 128.007 11.9469C126.057 14.7016 124.946 17.9615 124.807 21.3335V126.294C124.519 144.383 128.3 162.306 135.869 178.738C143.439 195.169 154.604 209.69 168.54 221.227C174.009 224.931 178.626 229.758 182.084 235.386C185.542 241.014 187.761 247.314 188.594 253.867C187.839 261.473 185.561 268.849 181.896 275.556C178.231 282.263 173.254 288.164 167.26 292.907C154.165 304.804 143.628 319.243 136.293 335.344C128.958 351.445 124.977 368.871 124.594 386.56V490.667C124.593 494.93 126.272 499.022 129.267 502.057C132.261 505.091 136.331 506.824 140.594 506.88H370.994C375.257 506.881 379.349 505.202 382.384 502.207C385.418 499.213 387.151 495.143 387.207 490.88V385.707C387.495 367.618 383.715 349.695 376.145 333.263C368.575 316.831 357.41 302.31 343.474 290.774C338.005 287.069 333.388 282.242 329.93 276.614C326.473 270.986 324.253 264.686 323.42 258.134C324.175 250.528 326.453 243.152 330.118 236.445C333.783 229.738 338.76 223.837 344.754 219.094C367.072 198.418 381.608 170.702 385.927 140.587V140.587ZM355.42 37.5469V112.214C351.796 109.018 348.376 105.598 345.18 101.974C339.395 93.982 331.841 87.436 323.107 82.8472C314.373 78.2583 304.697 75.7507 294.834 75.5202C284.971 75.7507 275.294 78.2583 266.561 82.8472C257.827 87.436 250.272 93.982 244.487 101.974C234.887 112.64 229.554 118.187 217.82 118.187C206.087 118.187 200.754 112.64 192.007 101.974C182.995 90.4064 170.625 81.9111 156.594 77.6535V37.3335L355.42 37.5469ZM323.42 314.88C333.692 323.417 341.904 334.162 347.445 346.315C352.985 358.468 355.712 371.714 355.42 385.067V474.027H156.594V386.56C156.988 373.228 160.083 360.114 165.694 348.013C171.304 335.912 179.313 325.075 189.234 316.16C198.687 308.343 206.344 298.579 211.682 287.534C217.02 276.49 219.914 264.424 220.167 252.16C219.111 241.182 215.753 230.55 210.313 220.956C204.873 211.363 197.472 203.023 188.594 196.48C178.322 187.943 170.11 177.198 164.569 165.045C159.029 152.893 156.302 139.646 156.594 126.294V112.854C160.541 116.067 164.183 119.638 167.474 123.52C173.304 131.366 180.854 137.771 189.544 142.246C198.235 146.72 207.834 149.145 217.607 149.334C227.488 149.078 237.176 146.538 245.911 141.911C254.646 137.285 262.191 130.698 267.954 122.667C277.554 112 283.1 106.667 294.62 106.667C306.14 106.667 311.687 112 321.074 122.667C329.256 132.996 339.992 141.011 352.22 145.92C347.081 164.711 336.813 181.7 322.567 194.987C313.114 202.804 305.457 212.568 300.119 223.613C294.781 234.657 291.887 246.723 291.634 258.987C292.599 270.131 295.934 280.939 301.416 290.689C306.898 300.439 314.401 308.905 323.42 315.52V314.88Z" fill="black"/>
</svg>
