<svg width="512" height="512" viewBox="0 0 512 512" fill="none" xmlns="http://www.w3.org/2000/svg">
<path d="M191.996 388.265C189.566 388.258 187.17 387.697 184.989 386.625C182.808 385.553 180.9 383.998 179.41 382.079L31.5698 190.079C14.4515 169.153 5.23838 142.873 5.54312 115.839C4.49709 87.8271 14.5195 60.5296 33.4427 39.8498C52.3659 19.17 78.6689 6.77015 106.663 5.33206C124.122 5.65857 141.19 10.5584 156.164 19.5425C171.137 28.5266 183.492 41.2808 191.996 56.5321C200.55 41.323 212.917 28.6037 227.88 19.6261C242.842 10.6485 259.885 5.72215 277.33 5.33206C305.362 6.71593 331.719 19.0922 350.688 39.7779C369.656 60.4637 379.708 87.792 378.663 115.839C378.83 142.923 369.466 169.203 352.21 190.079L204.796 382.079C203.273 384.015 201.329 385.578 199.111 386.65C196.893 387.722 194.46 388.274 191.996 388.265V388.265ZM106.663 37.3321C87.1137 38.6484 68.8773 47.6396 55.9296 62.3457C42.9819 77.0517 36.3728 96.28 37.5431 115.839C37.0881 135.8 43.8271 155.26 56.5298 170.665L191.996 346.025L327.25 170.665C339.848 155.34 346.712 136.104 346.663 116.265C347.892 96.6145 341.287 77.2771 328.293 62.4842C315.299 47.6913 296.975 38.6477 277.33 37.3321C259.769 38.4002 243.181 45.7595 230.605 58.0618C218.028 70.3642 210.305 86.7859 208.85 104.319C208.427 108.203 206.58 111.793 203.663 114.394C200.747 116.995 196.97 118.422 193.063 118.399C188.916 118.455 184.876 117.088 181.615 114.526C178.354 111.963 176.07 108.361 175.143 104.319C173.732 86.7699 166.022 70.3234 153.437 58.0124C140.851 45.7014 124.239 38.3564 106.663 37.3321V37.3321Z" fill="black"/>
<path d="M368.004 495.36C365.54 495.369 363.107 494.817 360.889 493.745C358.672 492.673 356.727 491.109 355.204 489.173L248.537 350.72C235.693 334.939 228.752 315.174 228.91 294.827C228.043 273.45 235.683 252.6 250.159 236.845C264.634 221.091 284.763 211.716 306.137 210.773C318.275 210.973 330.189 214.08 340.879 219.834C351.569 225.587 360.724 233.819 367.577 243.84C374.409 233.848 383.53 225.634 394.18 219.882C404.831 214.13 416.702 211.007 428.804 210.773C450.196 211.716 470.346 221.084 484.855 236.832C499.364 252.58 507.053 273.429 506.244 294.827C506.382 315.373 499.282 335.311 486.19 351.147L379.524 489.173C378.147 490.958 376.41 492.431 374.425 493.497C372.439 494.563 370.251 495.198 368.004 495.36V495.36ZM306.564 242.773C293.694 243.757 281.73 249.773 273.265 259.516C264.799 269.259 260.514 281.946 261.337 294.827C261.22 307.876 265.673 320.556 273.924 330.667L368.004 453.12L461.657 331.093C470.14 320.92 474.75 308.073 474.67 294.827C475.492 281.911 471.177 269.195 462.667 259.445C454.156 249.696 442.138 243.704 429.23 242.773C417.619 243.503 406.658 248.389 398.353 256.537C390.048 264.685 384.955 275.551 384.004 287.147C383.533 290.993 381.663 294.531 378.752 297.088C375.841 299.645 372.092 301.042 368.217 301.013C364.179 301.052 360.252 299.692 357.102 297.164C353.952 294.637 351.774 291.097 350.937 287.147C350.097 275.656 345.152 264.851 337.006 256.705C328.859 248.558 318.054 243.613 306.564 242.773V242.773Z" fill="black"/>
</svg>
