<svg width="512" height="512" viewBox="0 0 512 512" fill="none" xmlns="http://www.w3.org/2000/svg">
<path d="M272.145 274.143C275.268 274.143 277.778 272.902 279.473 270.928C281.123 269.007 281.889 266.529 281.89 264.144C281.891 261.76 281.128 259.281 279.478 257.358C277.782 255.383 275.27 254.143 272.145 254.143C269.022 254.143 266.512 255.384 264.817 257.358C263.167 259.279 262.401 261.757 262.4 264.142C262.399 266.526 263.161 269.005 264.812 270.928C266.507 272.903 269.019 274.143 272.145 274.143Z" fill="black" stroke="black" stroke-width="5"/>
<path d="M238.363 341.742C241.486 341.742 243.996 340.501 245.691 338.527C247.342 336.606 248.107 334.128 248.108 331.743C248.11 329.358 247.347 326.88 245.696 324.957C244.001 322.982 241.489 321.742 238.363 321.742C235.241 321.742 232.73 322.983 231.035 324.957C229.385 326.878 228.62 329.356 228.618 331.741C228.617 334.125 229.38 336.604 231.031 338.527C232.726 340.501 235.238 341.742 238.363 341.742Z" fill="black" stroke="black" stroke-width="5"/>
<path d="M272.145 381.427C275.268 381.427 277.778 380.185 279.473 378.212C281.123 376.29 281.889 373.813 281.89 371.428C281.891 369.043 281.128 366.565 279.478 364.642C277.782 362.667 275.27 361.427 272.145 361.427C269.022 361.427 266.512 362.668 264.817 364.642C263.167 366.563 262.401 369.041 262.4 371.425C262.399 373.81 263.161 376.289 264.812 378.211C266.507 380.186 269.019 381.427 272.145 381.427Z" fill="black" stroke="black" stroke-width="5"/>
<path d="M140.917 36.8315L142.081 39.0439L140.917 36.8315C106.977 54.69 87.6384 67.8565 65.1118 99.3798L65.1117 99.3799C62.0045 103.728 63.011 109.772 67.3593 112.88C71.7072 115.987 77.7524 114.981 80.8595 110.632C101.468 81.7931 118.339 70.5816 149.93 53.96C182.383 36.8844 219.064 27.8555 256 27.8555C313.708 27.8555 368.125 49.1403 410.328 87.985L315.47 182.843V141.933C322.754 141.19 328.354 137.472 332.164 132.243C336.344 126.508 338.342 119.021 338.317 111.67C338.293 104.319 336.246 96.8483 332.023 91.1478C327.747 85.3757 321.273 81.4896 312.759 81.4896H199.241C190.737 81.4896 184.267 85.3767 179.991 91.1474C175.767 96.847 173.713 104.317 173.682 111.668C173.652 119.018 175.642 126.506 179.821 132.243C183.632 137.473 189.236 141.191 196.53 141.933V301.955C196.126 302.247 195.738 302.575 195.372 302.941L87.985 410.328C49.1403 368.125 27.8555 313.708 27.8555 256C27.8555 220.364 35.852 186.231 51.6248 154.527C54.0058 149.742 52.0554 143.934 47.2717 141.552L47.271 141.552C42.4852 139.171 36.6761 141.121 34.2954 145.905L34.2953 145.906C17.1798 180.31 8.5 217.358 8.5 256C8.5 322.105 34.2482 384.265 80.9904 431.01L82.7582 429.242L80.9905 431.01C127.735 477.752 189.895 503.5 256 503.5C322.105 503.5 384.265 477.752 431.01 431.01L429.242 429.242L431.01 431.01C477.752 384.265 503.5 322.105 503.5 256C503.5 189.895 477.752 127.735 431.01 80.9905L429.242 82.7582L431.01 80.9904C384.265 34.2482 322.105 8.5 256 8.5C215.939 8.5 176.146 18.295 140.917 36.8315ZM315.471 210.216L424.015 101.672C462.86 143.875 484.145 198.292 484.145 256C484.145 316.945 460.417 374.229 417.323 417.323C374.229 460.417 316.945 484.145 256 484.145C198.292 484.145 143.875 462.86 101.672 424.015L196.53 329.157V363.194C196.53 395.96 223.182 422.636 255.947 422.664H255.949C288.369 422.664 315.471 395.639 315.471 363.194V332.562C315.471 329.449 314.196 326.977 312.18 325.355C310.227 323.784 307.735 323.13 305.384 323.226C303.032 323.322 300.6 324.178 298.785 325.914C296.932 327.686 295.883 330.226 296.116 333.292V363.194C296.116 385.007 277.754 403.308 255.965 403.309C233.868 403.29 215.885 385.291 215.885 363.194V221.524H296.116V280.4C295.646 286.626 300.699 290.196 305.276 290.614C307.634 290.829 310.184 290.281 312.191 288.659C314.26 286.986 315.471 284.397 315.471 281.13V210.216ZM215.885 202.169V142.074H296.116V202.169H215.885ZM192.656 111.552C192.656 109.441 193.461 106.584 194.865 104.284C196.327 101.889 197.942 100.845 199.241 100.845H312.759C314.629 100.845 316.182 101.847 317.393 103.842C318.635 105.887 319.359 108.778 319.389 111.807C319.42 114.839 318.754 117.711 317.54 119.733C316.37 121.68 314.801 122.719 312.759 122.719H199.241C198.006 122.719 196.385 121.647 194.889 119.09C193.467 116.66 192.656 113.675 192.656 111.552Z" fill="black" stroke="black" stroke-width="5"/>
</svg>
