<svg width="512" height="512" viewBox="0 0 512 512" fill="none" xmlns="http://www.w3.org/2000/svg">
<path d="M457.173 190.536C441.173 161.86 419.891 140.739 394.194 127.666C426.432 107.981 447.998 72.4651 447.998 32.0056C447.998 23.1697 440.835 16.0058 431.998 16.0058H351.999C308.067 16.0058 269.969 41.4355 251.632 78.3451C241.883 59.4653 229.978 45.1785 219.018 34.7726C192.644 9.72789 165.942 1.10399 164.819 0.748995C156.387 -1.91397 147.369 2.75097 144.71 11.1769C142.049 19.6028 146.689 28.5797 155.113 31.2406C155.329 31.3106 176.925 38.5086 198.004 58.9543C214.845 75.2901 226.659 95.1589 233.378 118.324C220.759 114.599 205.035 112.004 186.717 112.004C148.594 112.004 108.332 130.236 79.0153 160.777C53.9186 186.922 24.002 235.089 24.002 316.089C24.002 443.917 123.234 511.998 194.868 511.998C218.409 511.998 236.225 508.492 252.655 500.437C270.147 508.113 289.053 511.998 308.98 511.998C383.157 511.998 426.396 470.913 449.607 436.448C477.943 394.374 487.996 345.316 487.996 316.089C487.997 299.597 485.775 241.797 457.173 190.536ZM351.999 48.0054H414.391C406.957 84.475 374.632 112.005 335.999 112.005H273.607C281.041 75.5351 313.367 48.0054 351.999 48.0054ZM423.066 418.575C395.618 459.334 357.233 480 308.981 480C227.374 480 183.245 395.597 178.233 315.097C175.71 274.561 183.777 239.257 202.21 210.168C206.939 202.704 204.723 192.818 197.258 188.089C189.796 183.36 179.91 185.577 175.179 193.04C153.063 227.943 143.346 269.679 146.297 317.085C149.963 375.989 172.328 439.735 217.609 478.326C210.905 479.473 203.463 480 194.87 480C164.765 480 130.049 464.071 104.267 438.428C82.2483 416.528 56.0026 377.528 56.0026 316.091C56.0026 260.399 71.9424 214.355 102.101 182.939C125.504 158.56 157.136 144.004 186.718 144.004C212.398 144.004 231.523 150.372 239.612 155.264C239.869 159.432 240 163.678 240 168.004C240 176.84 247.163 184.004 256 184.004C264.837 184.004 272 176.84 272 168.004C272 162.943 271.825 158.046 271.524 153.274C284.785 148.327 302.789 144.004 325.282 144.004C371.257 144.004 406.228 164.905 429.228 206.128C454.067 250.645 455.998 301.55 455.998 316.091C455.998 340.81 447.373 382.482 423.066 418.575Z" fill="black"/>
</svg>
