<svg width="512" height="512" viewBox="0 0 512 512" fill="none" xmlns="http://www.w3.org/2000/svg">
<g clip-path="url(#clip0)">
<path d="M237.466 2.60267L237.362 2.75818L237.279 2.92536L109.355 258.772C107.087 262.319 107.124 266.953 109.466 270.464C110.645 272.232 112.333 273.605 114.06 274.535C115.773 275.457 117.753 276.067 119.642 276.067H203.023L109.231 499.663C106.753 504.756 109.441 510.363 113.435 513.441C114.524 514.423 115.856 514.734 116.764 514.863C117.726 515 118.763 515 119.551 515H119.642C122.797 515 126.193 513.958 128.59 511.561L128.681 511.471L128.764 511.372L401.831 187.105L401.939 186.977L402.032 186.837C404.144 183.668 405.396 179.094 403.071 174.445C402.04 172.383 400.659 170.656 398.852 169.451C397.026 168.234 394.94 167.667 392.708 167.667H297.462L394.373 14.4316C396.73 10.8677 396.723 6.15958 394.351 2.60267C392.183 -0.648268 388.752 -3 384.175 -3H247.642C243.065 -3 239.634 -0.648257 237.466 2.60267ZM368.334 190.733L159.816 437.952L230.783 268.251L230.826 268.148L230.861 268.042C231.933 264.826 231.995 261.256 229.658 257.75L229.493 257.503L229.283 257.293C227.381 255.391 224.092 253.001 220.335 253.001H138.149L254.616 20.067H363.343L265.607 173.296C263.247 176.861 263.253 181.572 265.626 185.13C267.794 188.381 271.225 190.733 275.802 190.733H368.334Z" fill="black" stroke="black" stroke-width="6"/>
</g>
<defs>
<clipPath id="clip0">
<rect width="512" height="512" fill="white"/>
</clipPath>
</defs>
</svg>
