<svg transform="rotate(0)" viewBox="0 0 24 24" height="16px" width="16px" aria-hidden="true">
    <path fill="#fff"
        d="m17 5.43a4.23 4.23 0 0 0 -4-4.43 4.16 4.16 0 0 0 -3.95 3.8h-.05a4.16 4.16 0 0 0 -4-3.8 4.23 4.23 0 0 0 -4 4.43 4.66 4.66 0 0 0 1.06 3l6.93 9 6.93-9a4.67 4.67 0 0 0 1.08-3z">
    </path>
    <path
        d="m9 18.2a.75.75 0 0 1 -.59-.29l-6.93-9a5.4 5.4 0 0 1 -1.22-3.48 5 5 0 0 1 4.74-5.18 4.68 4.68 0 0 1 4 2.4 4.71 4.71 0 0 1 4-2.4 5 5 0 0 1 4.75 5.18 5.41 5.41 0 0 1 -1.24 3.48l-6.91 9a.76.76 0 0 1 -.6.29zm-4-16.45a3.48 3.48 0 0 0 -3.24 3.68 3.9 3.9 0 0 0 .89 2.57l6.35 8.22 6.34-8.22a4 4 0 0 0 .91-2.55 3.49 3.49 0 0 0 -3.25-3.7 3.43 3.43 0 0 0 -3.21 3.14.74.74 0 0 1 -.74.66.85.85 0 0 1 -.84-.66 3.42 3.42 0 0 0 -3.21-3.14z">
    </path>
    <path fill="#fff"
        d="m23 13.82a3 3 0 0 0 -2.88-3.19 3 3 0 0 0 -2.84 2.73h-.06a3 3 0 0 0 -2.85-2.73 3 3 0 0 0 -2.87 3.19 3.4 3.4 0 0 0 .76 2.18l5 6.49 5-6.49a3.35 3.35 0 0 0 .74-2.18z">
    </path>
    <path
        d="m17.25 23.22a.76.76 0 0 1 -.6-.29l-5-6.49a4.1 4.1 0 0 1 -.92-2.62 3.79 3.79 0 0 1 3.62-3.94 3.56 3.56 0 0 1 2.88 1.55 3.56 3.56 0 0 1 2.87-1.55 3.8 3.8 0 0 1 3.63 3.94 4.1 4.1 0 0 1 -.94 2.64l-5 6.47a.75.75 0 0 1 -.54.29zm-2.88-11.84a2.3 2.3 0 0 0 -2.12 2.44 2.62 2.62 0 0 0 .59 1.68l4.41 5.74 4.39-5.72a2.63 2.63 0 0 0 .61-1.7 2.3 2.3 0 0 0 -2.13-2.44 2.27 2.27 0 0 0 -2.12 2.08.74.74 0 0 1 -.74.65.82.82 0 0 1 -.81-.65 2.25 2.25 0 0 0 -2.08-2.08z">
    </path>
</svg>