<svg width="512" height="512" viewBox="0 0 512 512" fill="none" xmlns="http://www.w3.org/2000/svg">
<g clip-path="url(#clip0)">
<path d="M501.59 25.043C499.652 18.1875 493.16 13.625 486.051 14.1641C483.07 14.3867 434.867 18.2266 391.051 38.4961C350.547 13.2891 304.039 0 255.988 0C187.609 0 123.328 26.6289 74.9766 74.9766C26.6289 123.328 0 187.609 0 255.988C0 324.363 26.6289 388.648 74.9766 437C123.328 485.348 187.609 511.977 255.988 511.977C324.363 511.977 388.648 485.348 437 437C485.348 388.648 511.977 324.363 511.977 255.988C511.977 227.875 507.453 200.312 498.535 173.953C526.301 114.469 502.699 28.9727 501.59 25.043ZM465.07 172.246C444.988 200.93 407.285 205.121 382.645 204.402L441.871 119.949C446.625 113.164 444.984 103.809 438.199 99.0547C431.418 94.2969 422.062 95.9414 417.309 102.723L358.125 187.117C349.043 164.191 340.18 127.438 360.215 98.8242C368.785 86.5859 381.504 77.0234 395.637 69.5586C396.465 69.2227 397.262 68.8047 398.027 68.3203C425.77 54.2813 458.301 48.0586 475.727 45.5664C482.52 77.5547 488.906 138.207 465.07 172.246ZM361.191 55.9297C351.387 63.1914 342.602 71.6836 335.645 81.6211C317.676 107.281 313.41 140.414 323.312 177.434C327.656 193.684 333.824 207.285 338.117 215.652L335.656 219.164C314.789 248.922 299.34 281.785 289.746 316.84L253.043 450.902L102.578 90.0625C144.457 51.2695 198.586 30 255.988 30C292.969 30 328.902 38.9102 361.191 55.9297V55.9297ZM30 255.988C30 203.711 47.6406 154.148 80.0938 114.082L233.016 480.824C181.332 475.641 133.414 453.008 96.1914 415.785C53.5039 373.102 30 316.352 30 255.988V255.988ZM415.785 415.785C377.824 453.746 328.734 476.523 275.875 481.105L318.68 324.762C327.359 293.047 341.336 263.312 360.215 236.391L362.633 232.945C368.824 233.73 377.52 234.512 387.617 234.512C392.711 234.512 398.164 234.312 403.828 233.812C433.625 231.191 458.242 221.27 476.156 204.836C480.016 221.516 481.977 238.629 481.977 255.988C481.977 316.352 458.469 373.102 415.785 415.785V415.785Z" fill="black"/>
</g>
<defs>
<clipPath id="clip0">
<rect width="512" height="512" fill="white"/>
</clipPath>
</defs>
</svg>
